<svg width="68" height="70" viewBox="0 0 68 70" fill="none" xmlns="http://www.w3.org/2000/svg">
<g id="Group">
<path id="Vector" d="M42.869 43.4384L38.3863 40.8973C42.0978 35.8151 44.5078 28.6712 40.9891 22.0548C39.3985 19.0822 36.41 16.6849 31.3489 14.2877C32.1683 12.8973 32.6021 11.2671 32.6021 9.5411C32.6021 4.26712 28.3122 0 23.01 0C17.7078 0 13.4179 4.26712 13.4179 9.5411C13.4179 11.2671 13.8999 12.8973 14.6712 14.2877C9.61001 16.6849 6.62152 19.0822 5.03087 22.0548C1.51217 28.6712 3.87404 35.8151 7.63375 40.8973L3.15101 43.4384C0.64454 44.8767 -0.223086 47.9452 1.07835 50.4863L10.092 67.6027C11.1525 69.6164 13.5625 70.5274 15.6834 69.7123C16.792 69.2808 17.7078 68.4658 18.1899 67.363C18.6719 66.2603 18.7201 65.0616 18.2863 63.9589L13.2733 50.9178C13.2733 50.9178 21.9978 46.5068 22.0942 46.4589C22.3834 46.3151 23.6366 46.3151 23.974 46.4589C24.0704 46.5068 32.7949 50.9178 32.7949 50.9178L27.7819 63.9589C27.3481 65.0616 27.3963 66.3082 27.8784 67.363C28.3604 68.4658 29.2762 69.2808 30.3848 69.7123C30.915 69.9041 31.4453 70 31.9755 70C33.6143 70 35.1568 69.089 35.9762 67.6027L44.9417 50.5342C46.2913 47.9931 45.3755 44.8767 42.869 43.4384ZM23.01 1.4863C27.4927 1.4863 31.1078 5.13014 31.1078 9.5411C31.1078 14 27.4445 17.5959 23.01 17.5959C18.5273 17.5959 14.9122 13.9521 14.9122 9.5411C14.9122 5.08219 18.5273 1.4863 23.01 1.4863ZM43.6402 49.8151L34.6748 66.8836C33.9517 68.226 32.3611 68.8493 30.915 68.274C30.1438 67.9863 29.5654 67.411 29.228 66.6918C28.8906 65.9726 28.8906 65.1575 29.1798 64.3904L34.4338 50.726C34.5784 50.3904 34.4337 49.9589 34.0963 49.8151C34.0963 49.8151 24.8417 45.1164 24.7453 45.1164C24.0222 44.6849 22.1424 44.6849 21.4194 45.1164C21.3712 45.1644 12.0683 49.863 12.0683 49.863C11.7309 50.0548 11.5863 50.4384 11.7309 50.774L16.8884 64.4384C17.1776 65.2055 17.1294 66.0205 16.8402 66.7397C16.5028 67.4589 15.9244 68.0342 15.1532 68.3219C13.7071 68.8493 12.1165 68.274 11.3935 66.8836L2.42799 49.8151C1.46396 47.9931 2.13878 45.7397 3.92224 44.7329L8.59778 42.0479C9.03159 42.5753 9.4654 43.0548 9.94742 43.5342C10.9114 44.5411 12.0201 45.0685 13.0323 45.0685C13.7553 45.0685 14.4302 44.8288 15.0568 44.3493C16.31 43.3904 16.7438 41.7123 16.1172 40.1781C16.0208 39.9863 15.8762 39.7466 15.6352 39.363C14.5748 37.6849 12.0683 33.8493 12.5503 29.5342C12.5985 29.1507 12.3093 28.7671 11.8755 28.7192C11.4899 28.6712 11.1043 28.9589 11.0561 29.3904C10.5258 34.2329 13.2733 38.5479 14.3337 40.1781C14.4784 40.4178 14.6712 40.6575 14.6712 40.7534C15.0568 41.6644 14.8158 42.6233 14.0445 43.1507C12.7913 44.1096 11.5381 43.1507 10.8632 42.4795C6.47691 37.8767 2.5726 29.9178 6.38051 22.726C7.82655 20.0411 10.7186 17.7397 15.5388 15.4863C17.3222 17.6438 19.9733 19.0342 23.01 19.0342C26.0467 19.0342 28.746 17.6438 30.4812 15.4863C35.3014 17.7397 38.2417 20.0411 39.6395 22.726C43.4474 29.8699 39.5431 37.8767 35.0604 42.5274C34.4337 43.1986 33.1805 44.1575 31.8791 43.1986C31.156 42.6233 30.915 41.6644 31.2525 40.8014C31.3007 40.7055 31.4453 40.4658 31.5899 40.226C32.6503 38.5959 35.446 34.2808 34.8676 29.4384C34.8194 29.0548 34.4819 28.7671 34.0481 28.7671C33.6625 28.8151 33.3733 29.1986 33.3733 29.5822C33.8553 33.8973 31.3971 37.7808 30.2884 39.411C30.0474 39.7945 29.9028 40.0342 29.8064 40.226C29.1798 41.7603 29.6136 43.3904 30.8668 44.3973C31.4935 44.8767 32.1683 45.1164 32.8913 45.1164C33.9517 45.1164 35.0122 44.589 35.9762 43.5822C36.41 43.1027 36.892 42.6233 37.3258 42.0959L42.0014 44.7808C43.9294 45.7397 44.6043 47.9931 43.6402 49.8151Z" fill="#003C3E"/>
<path id="Vector_2" d="M64.3669 56.8636V53.7472H66.4396C66.8252 53.7472 67.1626 53.4116 67.1626 53.028C67.1626 52.6444 66.8252 52.3088 66.4396 52.3088H64.3669V46.5075H66.4396C66.8252 46.5075 67.1626 46.1718 67.1626 45.7883C67.1626 45.4047 66.8252 45.0691 66.4396 45.0691H64.3669V39.2198H66.4396C66.8252 39.2198 67.1626 38.8842 67.1626 38.5006C67.1626 38.1171 66.8252 37.7814 66.4396 37.7814H64.3669V31.9801H66.4396C66.8252 31.9801 67.1626 31.6444 67.1626 31.2609C67.1626 30.8773 66.8252 30.5417 66.4396 30.5417H64.3669V27.7609C64.3669 25.5075 62.5352 23.6855 60.2698 23.6855C58.0043 23.6855 56.1726 25.5075 56.1726 27.7609V56.8636C54.1964 58.2061 53.0396 60.4116 53.0396 62.8088C53.0396 66.7883 56.269 70.0006 60.2698 70.0006C64.2705 70.0006 67.5 66.7883 67.5 62.8088C67.5 60.3636 66.3431 58.2061 64.3669 56.8636ZM60.2698 68.5143C57.0885 68.5143 54.4856 65.9253 54.4856 62.7609C54.4856 60.7472 55.546 58.9253 57.2813 57.8705C57.5223 57.7266 57.6187 57.4869 57.6187 57.2472V27.7129C57.6187 26.2746 58.7755 25.1239 60.2216 25.1239C61.6676 25.1239 62.8244 26.2746 62.8244 27.7129V57.2472C62.8244 57.4869 62.969 57.7266 63.1619 57.8705C64.8971 58.9253 65.9575 60.7472 65.9575 62.7609C66.0539 65.9732 63.4511 68.5143 60.2698 68.5143Z" fill="#003C3E"/>
<path id="Vector_3" d="M49.2797 22.4376C50.1316 22.4376 50.8222 21.7507 50.8222 20.9034C50.8222 20.056 50.1316 19.3691 49.2797 19.3691C48.4279 19.3691 47.7373 20.056 47.7373 20.9034C47.7373 21.7507 48.4279 22.4376 49.2797 22.4376Z" fill="#003C3E"/>
<path id="Vector_4" d="M3.24752 11.0763C4.09939 11.0763 4.78997 10.3894 4.78997 9.54206C4.78997 8.69472 4.09939 8.00781 3.24752 8.00781C2.39565 8.00781 1.70508 8.69472 1.70508 9.54206C1.70508 10.3894 2.39565 11.0763 3.24752 11.0763Z" fill="#003C3E"/>
<path id="Vector_5" d="M50.9668 39.2189C51.8186 39.2189 52.5092 38.532 52.5092 37.6846C52.5092 36.8373 51.8186 36.1504 50.9668 36.1504C50.1149 36.1504 49.4243 36.8373 49.4243 37.6846C49.4243 38.532 50.1149 39.2189 50.9668 39.2189Z" fill="#003C3E"/>
<path id="Vector_6" d="M56.3652 11.9376C57.2171 11.9376 57.9076 11.2507 57.9076 10.4034C57.9076 9.55605 57.2171 8.86914 56.3652 8.86914C55.5133 8.86914 54.8228 9.55605 54.8228 10.4034C54.8228 11.2507 55.5133 11.9376 56.3652 11.9376Z" fill="#003C3E"/>
<path id="Vector_7" d="M42.8208 5.46498C43.6726 5.46498 44.3632 4.77807 44.3632 3.93073C44.3632 3.08339 43.6726 2.39648 42.8208 2.39648C41.9689 2.39648 41.2783 3.08339 41.2783 3.93073C41.2783 4.77807 41.9689 5.46498 42.8208 5.46498Z" fill="#003C3E"/>
</g>
</svg>
